<svg width="170" height="96" viewBox="0 0 170 96" fill="none" xmlns="http://www.w3.org/2000/svg">
<path d="M11.0687 16.1792C6.49148 9.54562 11.24 0.5 19.2995 0.5L154.35 0.5C162.634 0.5 169.35 7.21573 169.35 15.5V80.5C169.35 88.7843 162.634 95.5 154.35 95.5H109.896C82.2851 95.5 56.4377 81.9314 40.757 59.2057L11.0687 16.1792Z" fill="url(#paint0_linear_24_830)"/>
<path d="M130.417 16.5833C131.1 16.5833 131.667 17.15 131.667 17.8333L131.667 29.5L132.083 29.5C134.583 29.5 135.417 31 135.417 32.8333L135.417 42.8333C135.417 44.6667 134.583 46.1667 132.083 46.1667L131.667 46.1667L131.667 51.1667C131.667 51.85 131.1 52.4167 130.417 52.4167C129.733 52.4167 129.167 51.85 129.167 51.1667L129.167 46.1667L128.75 46.1667C126.25 46.1667 125.417 44.6667 125.417 42.8333L125.417 32.8333C125.417 31 126.25 29.5 128.75 29.5L129.167 29.5L129.167 17.8333C129.167 17.15 129.733 16.5833 130.417 16.5833Z" fill="#A3A9A9"/>
<path d="M112.083 16.5833C112.767 16.5833 113.333 17.15 113.333 17.8333L113.333 22.8333L113.75 22.8333C116.25 22.8333 117.083 24.3333 117.083 26.1667L117.083 36.1667C117.083 38 116.25 39.5 113.75 39.5L113.333 39.5L113.333 51.1667C113.333 51.85 112.767 52.4167 112.083 52.4167C111.4 52.4167 110.833 51.85 110.833 51.1667L110.833 39.5L110.417 39.5C107.917 39.5 107.083 38 107.083 36.1667L107.083 26.1667C107.083 24.3333 107.917 22.8333 110.417 22.8333L110.833 22.8333L110.833 17.8333C110.833 17.15 111.4 16.5833 112.083 16.5833Z" fill="#A3A9A9"/>
<path d="M104.338 78.5V68.332H100.41V66.98H109.69V68.332H105.762V78.5H104.338ZM110.167 78.5V69.86H111.439V71.948L111.231 71.676C111.332 71.4093 111.463 71.164 111.623 70.94C111.788 70.716 111.972 70.532 112.175 70.388C112.399 70.2067 112.652 70.068 112.935 69.972C113.218 69.876 113.506 69.82 113.799 69.804C114.092 69.7827 114.367 69.8013 114.623 69.86V71.196C114.324 71.116 113.996 71.0947 113.639 71.132C113.282 71.1693 112.951 71.3 112.647 71.524C112.37 71.7213 112.154 71.9613 111.999 72.244C111.85 72.5267 111.746 72.8333 111.687 73.164C111.628 73.4893 111.599 73.8227 111.599 74.164V78.5H110.167ZM118.31 78.74C117.665 78.74 117.124 78.6227 116.686 78.388C116.254 78.148 115.926 77.8333 115.702 77.444C115.484 77.0547 115.374 76.628 115.374 76.164C115.374 75.7107 115.46 75.3187 115.63 74.988C115.806 74.652 116.052 74.3747 116.366 74.156C116.681 73.932 117.057 73.756 117.494 73.628C117.905 73.516 118.364 73.42 118.87 73.34C119.382 73.2547 119.9 73.1773 120.422 73.108C120.945 73.0387 121.433 72.972 121.886 72.908L121.374 73.204C121.39 72.436 121.236 71.868 120.91 71.5C120.59 71.132 120.036 70.948 119.246 70.948C118.724 70.948 118.265 71.068 117.87 71.308C117.481 71.5427 117.206 71.9267 117.046 72.46L115.694 72.052C115.902 71.2947 116.305 70.7 116.902 70.268C117.5 69.836 118.286 69.62 119.262 69.62C120.046 69.62 120.718 69.7613 121.278 70.044C121.844 70.3213 122.249 70.7427 122.494 71.308C122.617 71.5747 122.694 71.8653 122.726 72.18C122.758 72.4893 122.774 72.8147 122.774 73.156V78.5H121.51V76.428L121.806 76.62C121.481 77.3187 121.025 77.8467 120.438 78.204C119.857 78.5613 119.148 78.74 118.31 78.74ZM118.526 77.548C119.038 77.548 119.481 77.4573 119.854 77.276C120.233 77.0893 120.537 76.8467 120.766 76.548C120.996 76.244 121.145 75.9133 121.214 75.556C121.294 75.2893 121.337 74.9933 121.342 74.668C121.353 74.3373 121.358 74.084 121.358 73.908L121.854 74.124C121.39 74.188 120.934 74.2493 120.486 74.308C120.038 74.3667 119.614 74.4307 119.214 74.5C118.814 74.564 118.454 74.6413 118.134 74.732C117.9 74.8067 117.678 74.9027 117.47 75.02C117.268 75.1373 117.102 75.2893 116.974 75.476C116.852 75.6573 116.79 75.884 116.79 76.156C116.79 76.3907 116.849 76.6147 116.966 76.828C117.089 77.0413 117.276 77.2147 117.526 77.348C117.782 77.4813 118.116 77.548 118.526 77.548ZM128.246 78.74C127.441 78.74 126.75 78.54 126.174 78.14C125.598 77.7347 125.153 77.188 124.838 76.5C124.529 75.812 124.374 75.036 124.374 74.172C124.374 73.308 124.529 72.532 124.838 71.844C125.153 71.156 125.598 70.6147 126.174 70.22C126.75 69.82 127.438 69.62 128.238 69.62C129.054 69.62 129.74 69.8173 130.294 70.212C130.849 70.6067 131.268 71.148 131.55 71.836C131.838 72.524 131.982 73.3027 131.982 74.172C131.982 75.0307 131.838 75.8067 131.55 76.5C131.268 77.188 130.849 77.7347 130.294 78.14C129.74 78.54 129.057 78.74 128.246 78.74ZM128.422 77.436C129.004 77.436 129.481 77.2973 129.854 77.02C130.228 76.7373 130.502 76.3507 130.678 75.86C130.86 75.364 130.95 74.8013 130.95 74.172C130.95 73.532 130.86 72.9693 130.678 72.484C130.502 71.9933 130.23 71.612 129.862 71.34C129.494 71.0627 129.028 70.924 128.462 70.924C127.876 70.924 127.39 71.068 127.006 71.356C126.628 71.644 126.345 72.0333 126.158 72.524C125.977 73.0147 125.886 73.564 125.886 74.172C125.886 74.7853 125.98 75.34 126.166 75.836C126.353 76.3267 126.633 76.716 127.006 77.004C127.385 77.292 127.857 77.436 128.422 77.436ZM130.95 78.5V72.14H130.79V66.98H132.222V78.5H130.95ZM138.208 78.74C137.36 78.74 136.618 78.5533 135.984 78.18C135.354 77.8013 134.864 77.276 134.512 76.604C134.16 75.9267 133.984 75.1373 133.984 74.236C133.984 73.292 134.157 72.476 134.504 71.788C134.85 71.0947 135.333 70.5613 135.952 70.188C136.576 69.8093 137.306 69.62 138.144 69.62C139.013 69.62 139.752 69.82 140.36 70.22C140.973 70.62 141.432 71.1907 141.736 71.932C142.045 72.6733 142.178 73.556 142.136 74.58H140.696V74.068C140.68 73.0067 140.464 72.2147 140.048 71.692C139.632 71.164 139.013 70.9 138.192 70.9C137.312 70.9 136.642 71.1827 136.184 71.748C135.725 72.3133 135.496 73.124 135.496 74.18C135.496 75.1987 135.725 75.988 136.184 76.548C136.642 77.108 137.296 77.388 138.144 77.388C138.714 77.388 139.21 77.2573 139.632 76.996C140.053 76.7347 140.384 76.3587 140.624 75.868L141.992 76.34C141.656 77.1027 141.149 77.6947 140.472 78.116C139.8 78.532 139.045 78.74 138.208 78.74ZM135.016 74.58V73.436H141.4V74.58H135.016Z" fill="#A3A9A9"/>
<defs>
<linearGradient id="paint0_linear_24_830" x1="58.75" y1="23.5" x2="57.25" y2="86.5" gradientUnits="userSpaceOnUse">
<stop stop-color="white"/>
<stop offset="1" stop-color="#DFDFDF"/>
</linearGradient>
</defs>
</svg>
