<svg width="161" height="95" viewBox="0 0 161 95" fill="none" xmlns="http://www.w3.org/2000/svg">
<path d="M158.281 15.6792C162.858 9.04562 158.11 0 150.05 0L15 0C6.7157 0 -2.01583e-05 6.71573 -2.01583e-05 15V80C-2.01583e-05 88.2843 6.71571 95 15 95H59.4543C87.0649 95 112.912 81.4314 128.593 58.7057L158.281 15.6792Z" fill="url(#paint0_linear_2230_622)"/>
<path d="M56.1 16.3334C46.9 16.3334 39.4333 23.8 39.4333 33C39.4333 42.2 46.9 49.6667 56.1 49.6667C65.3 49.6667 72.7667 42.2 72.7667 33C72.7667 23.8 65.3 16.3334 56.1 16.3334ZM64.85 33.55C64.85 34.2334 64.2834 34.8 63.6 34.8C62.9167 34.8 62.35 34.2334 62.35 33.55V28.5167L49.4833 41.3834C49.2333 41.6334 48.9167 41.75 48.6 41.75C48.2834 41.75 47.9667 41.6334 47.7167 41.3834C47.2333 40.9 47.2333 40.1 47.7167 39.6167L60.5833 26.75H55.55C54.8667 26.75 54.3 26.1834 54.3 25.5C54.3 24.8167 54.8667 24.25 55.55 24.25H63.6C64.2834 24.25 64.85 24.8167 64.85 25.5V33.55Z" fill="#A3A9A9"/>
<path d="M23.676 77L20.34 65.48H21.828L24.388 74.592L26.94 65.488L28.436 65.48L30.996 74.592L33.548 65.48H35.044L31.708 77H30.284L27.692 67.968L25.1 77H23.676ZM36.255 66.832V65.36H37.679V66.832H36.255ZM36.255 77V68.36H37.679V77H36.255ZM44.9034 77C44.3914 77.1013 43.8847 77.1413 43.3834 77.12C42.8874 77.104 42.4447 77.0053 42.0554 76.824C41.666 76.6373 41.37 76.3493 41.1674 75.96C40.9967 75.6187 40.9034 75.2747 40.8874 74.928C40.8767 74.576 40.8714 74.1787 40.8714 73.736V65.96H42.2954V73.672C42.2954 74.024 42.298 74.3253 42.3034 74.576C42.314 74.8267 42.37 75.0427 42.4714 75.224C42.6634 75.5653 42.9674 75.7653 43.3834 75.824C43.8047 75.8827 44.3114 75.8667 44.9034 75.776V77ZM39.1194 69.536V68.36H44.9034V69.536H39.1194ZM52.8095 77V72.672C52.8095 72.2613 52.7721 71.8667 52.6975 71.488C52.6281 71.1093 52.5028 70.7707 52.3215 70.472C52.1455 70.168 51.9055 69.928 51.6015 69.752C51.3028 69.576 50.9241 69.488 50.4655 69.488C50.1081 69.488 49.7828 69.5493 49.4895 69.672C49.2015 69.7893 48.9535 69.9707 48.7455 70.216C48.5375 70.4613 48.3748 70.7707 48.2575 71.144C48.1455 71.512 48.0895 71.9467 48.0895 72.448L47.1535 72.16C47.1535 71.3227 47.3028 70.6053 47.6015 70.008C47.9055 69.4053 48.3295 68.944 48.8735 68.624C49.4228 68.2987 50.0681 68.136 50.8095 68.136C51.3695 68.136 51.8468 68.224 52.2415 68.4C52.6361 68.576 52.9641 68.8107 53.2255 69.104C53.4868 69.392 53.6921 69.7173 53.8415 70.08C53.9908 70.4373 54.0948 70.8027 54.1535 71.176C54.2175 71.544 54.2495 71.8933 54.2495 72.224V77H52.8095ZM46.6495 77V65.48H47.9295V71.84H48.0895V77H46.6495ZM59.7214 77.24C58.916 77.24 58.2254 77.04 57.6494 76.64C57.0734 76.2347 56.628 75.688 56.3134 75C56.004 74.312 55.8494 73.536 55.8494 72.672C55.8494 71.808 56.004 71.032 56.3134 70.344C56.628 69.656 57.0734 69.1147 57.6494 68.72C58.2254 68.32 58.9134 68.12 59.7134 68.12C60.5294 68.12 61.2147 68.3173 61.7694 68.712C62.324 69.1067 62.7427 69.648 63.0254 70.336C63.3134 71.024 63.4574 71.8027 63.4574 72.672C63.4574 73.5307 63.3134 74.3067 63.0254 75C62.7427 75.688 62.324 76.2347 61.7694 76.64C61.2147 77.04 60.532 77.24 59.7214 77.24ZM59.8974 75.936C60.4787 75.936 60.956 75.7973 61.3294 75.52C61.7027 75.2373 61.9774 74.8507 62.1534 74.36C62.3347 73.864 62.4254 73.3013 62.4254 72.672C62.4254 72.032 62.3347 71.4693 62.1534 70.984C61.9774 70.4933 61.7054 70.112 61.3374 69.84C60.9694 69.5627 60.5027 69.424 59.9374 69.424C59.3507 69.424 58.8654 69.568 58.4814 69.856C58.1027 70.144 57.82 70.5333 57.6334 71.024C57.452 71.5147 57.3614 72.064 57.3614 72.672C57.3614 73.2853 57.4547 73.84 57.6414 74.336C57.828 74.8267 58.108 75.216 58.4814 75.504C58.86 75.792 59.332 75.936 59.8974 75.936ZM62.4254 77V70.64H62.2654V65.48H63.6974V77H62.4254ZM65.9387 77V68.36H67.2107V70.448L67.0027 70.176C67.1041 69.9093 67.2347 69.664 67.3947 69.44C67.5601 69.216 67.7441 69.032 67.9467 68.888C68.1707 68.7067 68.4241 68.568 68.7067 68.472C68.9894 68.376 69.2774 68.32 69.5707 68.304C69.8641 68.2827 70.1387 68.3013 70.3947 68.36V69.696C70.0961 69.616 69.7681 69.5947 69.4107 69.632C69.0534 69.6693 68.7227 69.8 68.4187 70.024C68.1414 70.2213 67.9254 70.4613 67.7707 70.744C67.6214 71.0267 67.5174 71.3333 67.4587 71.664C67.4001 71.9893 67.3707 72.3227 67.3707 72.664V77H65.9387ZM74.0822 77.24C73.4369 77.24 72.8956 77.1227 72.4582 76.888C72.0262 76.648 71.6982 76.3333 71.4742 75.944C71.2556 75.5547 71.1462 75.128 71.1462 74.664C71.1462 74.2107 71.2316 73.8187 71.4022 73.488C71.5782 73.152 71.8236 72.8747 72.1382 72.656C72.4529 72.432 72.8289 72.256 73.2662 72.128C73.6769 72.016 74.1356 71.92 74.6422 71.84C75.1542 71.7547 75.6716 71.6773 76.1942 71.608C76.7169 71.5387 77.2049 71.472 77.6582 71.408L77.1462 71.704C77.1622 70.936 77.0076 70.368 76.6822 70C76.3622 69.632 75.8076 69.448 75.0182 69.448C74.4956 69.448 74.0369 69.568 73.6422 69.808C73.2529 70.0427 72.9782 70.4267 72.8182 70.96L71.4662 70.552C71.6742 69.7947 72.0769 69.2 72.6742 68.768C73.2716 68.336 74.0582 68.12 75.0342 68.12C75.8182 68.12 76.4902 68.2613 77.0502 68.544C77.6156 68.8213 78.0209 69.2427 78.2662 69.808C78.3889 70.0747 78.4662 70.3653 78.4982 70.68C78.5302 70.9893 78.5462 71.3147 78.5462 71.656V77H77.2822V74.928L77.5782 75.12C77.2529 75.8187 76.7969 76.3467 76.2102 76.704C75.6289 77.0613 74.9196 77.24 74.0822 77.24ZM74.2982 76.048C74.8102 76.048 75.2529 75.9573 75.6262 75.776C76.0049 75.5893 76.3089 75.3467 76.5382 75.048C76.7676 74.744 76.9169 74.4133 76.9862 74.056C77.0662 73.7893 77.1089 73.4933 77.1142 73.168C77.1249 72.8373 77.1302 72.584 77.1302 72.408L77.6262 72.624C77.1622 72.688 76.7062 72.7493 76.2582 72.808C75.8102 72.8667 75.3862 72.9307 74.9862 73C74.5862 73.064 74.2262 73.1413 73.9062 73.232C73.6716 73.3067 73.4502 73.4027 73.2422 73.52C73.0396 73.6373 72.8742 73.7893 72.7462 73.976C72.6236 74.1573 72.5622 74.384 72.5622 74.656C72.5622 74.8907 72.6209 75.1147 72.7382 75.328C72.8609 75.5413 73.0476 75.7147 73.2982 75.848C73.5542 75.9813 73.8876 76.048 74.2982 76.048ZM82.1537 77L79.5137 68.352L80.9297 68.36L82.8577 74.68L84.8017 68.36H86.0577L87.9937 74.68L89.9297 68.36H91.3377L88.6977 77H87.5137L85.4257 70.432L83.3377 77H82.1537Z" fill="#A3A9A9"/>
<defs>
<linearGradient id="paint0_linear_2230_622" x1="100.6" y1="16" x2="91.6" y2="95" gradientUnits="userSpaceOnUse">
<stop stop-color="white"/>
<stop offset="1" stop-color="#DFDFDF"/>
</linearGradient>
</defs>
</svg>
