<svg width="137" height="96" viewBox="0 0 137 96" fill="none" xmlns="http://www.w3.org/2000/svg">
<rect x="0.75" y="1" width="135" height="94" rx="14.5" fill="black" stroke="#2C2C2C"/>
<mask id="mask0_2225_610" style="mask-type:alpha" maskUnits="userSpaceOnUse" x="0" y="0" width="137" height="96">
<rect x="0.75" y="1" width="135" height="94" rx="14.5" fill="#D9D9D9" stroke="#2C2C2C"/>
</mask>
<g mask="url(#mask0_2225_610)">
<g filter="url(#filter0_f_2225_610)">
<circle cx="67.75" cy="139" r="70.5" fill="url(#paint0_linear_2225_610)"/>
<circle cx="67.75" cy="-42" r="70.5" transform="rotate(-180 67.75 -42)" fill="url(#paint1_linear_2225_610)"/>
</g>
</g>
<path d="M40.37 77.5V65.98H43.922C44.0393 65.98 44.2447 65.9827 44.538 65.988C44.8313 65.9933 45.1113 66.0147 45.378 66.052C46.2687 66.1693 47.0127 66.4947 47.61 67.028C48.2127 67.556 48.666 68.228 48.97 69.044C49.274 69.86 49.426 70.7587 49.426 71.74C49.426 72.7213 49.274 73.62 48.97 74.436C48.666 75.252 48.2127 75.9267 47.61 76.46C47.0127 76.988 46.2687 77.3107 45.378 77.428C45.1113 77.46 44.8287 77.4813 44.53 77.492C44.2367 77.4973 44.034 77.5 43.922 77.5H40.37ZM41.834 76.14H43.922C44.1247 76.14 44.3513 76.1347 44.602 76.124C44.8527 76.108 45.0713 76.084 45.258 76.052C45.8873 75.9347 46.3967 75.6707 46.786 75.26C47.1753 74.8493 47.4607 74.3373 47.642 73.724C47.8233 73.1107 47.914 72.4493 47.914 71.74C47.914 71.0147 47.8207 70.3453 47.634 69.732C47.4527 69.1187 47.1673 68.6093 46.778 68.204C46.3887 67.7987 45.882 67.54 45.258 67.428C45.0713 67.3907 44.85 67.3667 44.594 67.356C44.338 67.3453 44.114 67.34 43.922 67.34H41.834V76.14ZM55.0046 77.74C54.1566 77.74 53.4153 77.5533 52.7806 77.18C52.1513 76.8013 51.6606 76.276 51.3086 75.604C50.9566 74.9267 50.7806 74.1373 50.7806 73.236C50.7806 72.292 50.954 71.476 51.3006 70.788C51.6473 70.0947 52.13 69.5613 52.7486 69.188C53.3726 68.8093 54.1033 68.62 54.9406 68.62C55.81 68.62 56.5486 68.82 57.1566 69.22C57.77 69.62 58.2286 70.1907 58.5326 70.932C58.842 71.6733 58.9753 72.556 58.9326 73.58H57.4926V73.068C57.4766 72.0067 57.2606 71.2147 56.8446 70.692C56.4286 70.164 55.81 69.9 54.9886 69.9C54.1086 69.9 53.4393 70.1827 52.9806 70.748C52.522 71.3133 52.2926 72.124 52.2926 73.18C52.2926 74.1987 52.522 74.988 52.9806 75.548C53.4393 76.108 54.0926 76.388 54.9406 76.388C55.5113 76.388 56.0073 76.2573 56.4286 75.996C56.85 75.7347 57.1806 75.3587 57.4206 74.868L58.7886 75.34C58.4526 76.1027 57.946 76.6947 57.2686 77.116C56.5966 77.532 55.842 77.74 55.0046 77.74ZM51.8126 73.58V72.436H58.1966V73.58H51.8126ZM64.4474 77.74C63.6367 77.74 62.954 77.54 62.3994 77.14C61.8447 76.7347 61.4234 76.188 61.1354 75.5C60.8527 74.8067 60.7114 74.0307 60.7114 73.172C60.7114 72.3027 60.8527 71.524 61.1354 70.836C61.4234 70.148 61.8447 69.6067 62.3994 69.212C62.9594 68.8173 63.6447 68.62 64.4554 68.62C65.2554 68.62 65.9434 68.82 66.5194 69.22C67.1007 69.6147 67.546 70.156 67.8554 70.844C68.1647 71.532 68.3194 72.308 68.3194 73.172C68.3194 74.036 68.1647 74.812 67.8554 75.5C67.546 76.188 67.1007 76.7347 66.5194 77.14C65.9434 77.54 65.2527 77.74 64.4474 77.74ZM60.4714 81.34V68.86H61.7434V75.22H61.9034V81.34H60.4714ZM64.2714 76.436C64.842 76.436 65.314 76.292 65.6874 76.004C66.0607 75.716 66.3407 75.3267 66.5274 74.836C66.714 74.34 66.8074 73.7853 66.8074 73.172C66.8074 72.564 66.714 72.0147 66.5274 71.524C66.346 71.0333 66.0634 70.644 65.6794 70.356C65.3007 70.068 64.818 69.924 64.2314 69.924C63.6714 69.924 63.2074 70.0627 62.8394 70.34C62.4714 70.612 62.1967 70.9933 62.0154 71.484C61.834 71.9693 61.7434 72.532 61.7434 73.172C61.7434 73.8013 61.8314 74.364 62.0074 74.86C62.1887 75.3507 62.466 75.7373 62.8394 76.02C63.2127 76.2973 63.69 76.436 64.2714 76.436ZM73.7531 77.74C72.8945 77.74 72.1531 77.5453 71.5291 77.156C70.9105 76.7667 70.4331 76.228 70.0971 75.54C69.7611 74.852 69.5931 74.0627 69.5931 73.172C69.5931 72.2653 69.7638 71.4707 70.1051 70.788C70.4465 70.1053 70.9291 69.5747 71.5531 69.196C72.1771 68.812 72.9105 68.62 73.7531 68.62C74.6171 68.62 75.3611 68.8147 75.9851 69.204C76.6091 69.588 77.0865 70.124 77.4171 70.812C77.7531 71.4947 77.9211 72.2813 77.9211 73.172C77.9211 74.0733 77.7531 74.868 77.4171 75.556C77.0811 76.2387 76.6011 76.7747 75.9771 77.164C75.3531 77.548 74.6118 77.74 73.7531 77.74ZM73.7531 76.388C74.6491 76.388 75.3158 76.0893 75.7531 75.492C76.1905 74.8947 76.4091 74.1213 76.4091 73.172C76.4091 72.196 76.1878 71.42 75.7451 70.844C75.3025 70.2627 74.6385 69.972 73.7531 69.972C73.1505 69.972 72.6545 70.108 72.2651 70.38C71.8758 70.652 71.5851 71.028 71.3931 71.508C71.2011 71.988 71.1051 72.5427 71.1051 73.172C71.1051 74.1427 71.3291 74.9213 71.7771 75.508C72.2251 76.0947 72.8838 76.388 73.7531 76.388ZM82.8215 77.732C81.7922 77.732 80.9468 77.508 80.2855 77.06C79.6295 76.6067 79.2268 75.9747 79.0775 75.164L80.5335 74.932C80.6508 75.4013 80.9202 75.7747 81.3415 76.052C81.7628 76.324 82.2855 76.46 82.9095 76.46C83.5015 76.46 83.9655 76.3373 84.3015 76.092C84.6375 75.8467 84.8055 75.5133 84.8055 75.092C84.8055 74.8467 84.7495 74.6493 84.6375 74.5C84.5255 74.3453 84.2935 74.2013 83.9415 74.068C83.5948 73.9347 83.0695 73.7747 82.3655 73.588C81.6028 73.3853 81.0028 73.1747 80.5655 72.956C80.1282 72.7373 79.8162 72.484 79.6295 72.196C79.4428 71.908 79.3495 71.5587 79.3495 71.148C79.3495 70.6413 79.4882 70.1987 79.7655 69.82C80.0428 69.436 80.4295 69.14 80.9255 68.932C81.4268 68.724 82.0082 68.62 82.6695 68.62C83.3255 68.62 83.9122 68.724 84.4295 68.932C84.9468 69.14 85.3628 69.436 85.6775 69.82C85.9975 70.1987 86.1868 70.6413 86.2455 71.148L84.7895 71.412C84.7202 70.948 84.4962 70.5827 84.1175 70.316C83.7442 70.0493 83.2615 69.908 82.6695 69.892C82.1095 69.8707 81.6535 69.9693 81.3015 70.188C80.9548 70.4067 80.7815 70.7027 80.7815 71.076C80.7815 71.284 80.8455 71.4627 80.9735 71.612C81.1068 71.7613 81.3495 71.9027 81.7015 72.036C82.0588 72.1693 82.5762 72.3213 83.2535 72.492C84.0162 72.684 84.6162 72.8947 85.0535 73.124C85.4962 73.348 85.8108 73.6147 85.9975 73.924C86.1842 74.228 86.2775 74.604 86.2775 75.052C86.2775 75.884 85.9708 76.54 85.3575 77.02C84.7442 77.4947 83.8988 77.732 82.8215 77.732ZM88.2019 67.332V65.86H89.6259V67.332H88.2019ZM88.2019 77.5V68.86H89.6259V77.5H88.2019ZM96.8503 77.5C96.3383 77.6013 95.8316 77.6413 95.3303 77.62C94.8343 77.604 94.3916 77.5053 94.0023 77.324C93.6129 77.1373 93.3169 76.8493 93.1143 76.46C92.9436 76.1187 92.8503 75.7747 92.8343 75.428C92.8236 75.076 92.8183 74.6787 92.8183 74.236V66.46H94.2423V74.172C94.2423 74.524 94.2449 74.8253 94.2503 75.076C94.2609 75.3267 94.3169 75.5427 94.4183 75.724C94.6103 76.0653 94.9143 76.2653 95.3303 76.324C95.7516 76.3827 96.2583 76.3667 96.8503 76.276V77.5ZM91.0663 70.036V68.86H96.8503V70.036H91.0663Z" fill="white"/>
<path d="M68.25 16.8333C59.05 16.8333 51.5834 24.3 51.5834 33.5C51.5834 42.7 59.05 50.1667 68.25 50.1667C77.45 50.1667 84.9167 42.7 84.9167 33.5C84.9167 24.3 77.45 16.8333 68.25 16.8333ZM77.4667 26.05L64.6 38.9167H69.6334C70.3167 38.9167 70.8834 39.4833 70.8834 40.1667C70.8834 40.85 70.3167 41.4167 69.6334 41.4167H61.5834C60.9 41.4167 60.3334 40.85 60.3334 40.1667V32.1167C60.3334 31.4333 60.9 30.8667 61.5834 30.8667C62.2667 30.8667 62.8334 31.4333 62.8334 32.1167V37.15L75.7 24.2833C75.95 24.0333 76.2667 23.9167 76.5834 23.9167C76.9 23.9167 77.2167 24.0333 77.4667 24.2833C77.95 24.7667 77.95 25.5667 77.4667 26.05Z" fill="white"/>
<defs>
<filter id="filter0_f_2225_610" x="-42.75" y="-152.5" width="221" height="402" filterUnits="userSpaceOnUse" color-interpolation-filters="sRGB">
<feFlood flood-opacity="0" result="BackgroundImageFix"/>
<feBlend mode="normal" in="SourceGraphic" in2="BackgroundImageFix" result="shape"/>
<feGaussianBlur stdDeviation="20" result="effect1_foregroundBlur_2225_610"/>
</filter>
<linearGradient id="paint0_linear_2225_610" x1="67.75" y1="68.5" x2="67.75" y2="209.5" gradientUnits="userSpaceOnUse">
<stop stop-color="#FF5C1E"/>
<stop offset="1" stop-opacity="0"/>
</linearGradient>
<linearGradient id="paint1_linear_2225_610" x1="67.75" y1="-112.5" x2="67.75" y2="28.5" gradientUnits="userSpaceOnUse">
<stop stop-color="#97CD50"/>
<stop offset="1" stop-opacity="0"/>
</linearGradient>
</defs>
</svg>
